# xmcd
#
# Track frame offsets:
#	150
#	11746
#	21926
#	33368
#	43858
#	54229
#	65675
#	76874
#	88261
#	96971
#	108870
#	120835
#	133949
#	146845
#	157584
#	169655
#	179159
#	190166
#	201916
#	214788
#
# Disc length: 3021 seconds
# Revision: 0
# Processed by: cddbd v1.5.2PL0 Copyright (c) Steve Scherf et al.
# Submitted via: dBpowerAMP V12.0
#
DISCID=160bcb14
DTITLE=Connie Francis - Uforglemmelige Klassikere
DYEAR=1900
DGENRE=
TTITLE0=Carolina moon
TTITLE1=Stupid cupid
TTITLE2=Among my souvenirs
TTITLE3=Lipstick on your collar
TTITLE4=Who's sorry now?
TTITLE5=My heart has a mind of its own
TTITLE6=My happiness
TTITLE7=Frankie
TTITLE8=Many tears ago
TTITLE9=Where the boys are
TTITLE10=Breakin' in a brand new broken heart
TTITLE11=Together
TTITLE12=Second hand love
TTITLE13=Vacation
TTITLE14=Follow the boys
TTITLE15=Drownin' my sorrows
TTITLE16=Blue winter
TTITLE17=Jealous heart
TTITLE18=My heart cries for you
TTITLE19=Everybody's somebody's fool
EXTD=
EXTT0=
EXTT1=
EXTT2=
EXTT3=
EXTT4=
EXTT5=
EXTT6=
EXTT7=
EXTT8=
EXTT9=
EXTT10=
EXTT11=
EXTT12=
EXTT13=
EXTT14=
EXTT15=
EXTT16=
EXTT17=
EXTT18=
EXTT19=
PLAYORDER=
